<?xml version="1.0" encoding="utf-8"?>
<!-- Generator: Adobe Illustrator 27.8.1, SVG Export Plug-In . SVG Version: 6.00 Build 0)  -->
<svg version="1.1" id="Layer_1" xmlns="http://www.w3.org/2000/svg" xmlns:xlink="http://www.w3.org/1999/xlink" x="0px" y="0px"
	 viewBox="0 0 1920 1080" style="enable-background:new 0 0 1920 1080;" xml:space="preserve">
<style type="text/css">
	.st0{fill:#FFFFFF;}
	.st1{fill:#898B8E;}
	.st2{fill:#E64134;}
	.st3{fill:#010101;}
	.st4{fill-rule:evenodd;clip-rule:evenodd;fill:#FFFFFF;}
</style>
<g>
	<g>
		<path class="st0" d="M513.93,330.53l-97.17,0.31l-17.18-29.25l-101.44,0.36l38.22,65.09L99.73,768.44h98.15h4.6h90.22h6.44h311.48
			l48.13-82.55h74.82l50.73-87.01H671.27L513.93,330.53z M505.6,345.13l143.53,244.8l-67.69,0.24L437.91,345.35L505.6,345.13z
			 M323.55,316.43l67.71-0.24L552,589.94l-67.69,0.24L323.55,316.43z M194.13,753.87h-68.88l214.34-363.59l33.95,57.62
			L194.13,753.87z M290.79,753.87h-67.47l164.82-281.04l33.98,57.62L290.79,753.87z M602.24,753.87H318.06l33.73-57.86h284.18
			L602.24,753.87z M725.19,671.31H366.61l33.73-57.86h358.58L725.19,671.31z"/>
		<polygon class="st1" points="318.06,753.87 602.24,753.87 635.97,696.01 351.79,696.01 		"/>
		<polygon class="st1" points="366.61,671.31 725.19,671.31 758.93,613.45 400.34,613.45 		"/>
		<polygon class="st2" points="339.59,390.27 125.24,753.87 194.13,753.87 373.54,447.89 		"/>
		<polygon class="st2" points="388.14,472.83 223.32,753.87 290.79,753.87 422.12,530.44 		"/>
		<polygon class="st3" points="649.13,589.94 505.6,345.13 437.91,345.35 581.44,590.17 		"/>
		<polygon class="st3" points="552,589.94 391.26,316.19 323.55,316.43 484.31,590.17 		"/>
		<path class="st0" d="M992.28,382.29L887,671.14h94.26l11.02-38.11h95.9l11.42,38.11h95.9l-105.28-288.84H992.28z M1010.64,572.85
			l29.79-103.5l31.01,103.5H1010.64z"/>
		<polygon class="st0" points="1495.43,382.29 1403.21,382.29 1403.21,474.16 1406.89,539.95 1302.01,382.29 1211.83,382.29 
			1211.83,671.14 1304.05,671.14 1304.05,579.67 1300.38,513.88 1405.25,671.14 1495.43,671.14 		"/>
		<path class="st0" d="M1617.05,633.03h95.89l11.43,38.11h95.9l-105.28-288.84h-97.94l-105.28,288.84h94.26L1617.05,633.03z
			 M1665.2,469.35l31.01,103.5h-60.8L1665.2,469.35z"/>
	</g>
	<g>
		<polygon class="st4" points="887,712.31 896.29,712.31 905.73,751.58 905.87,751.58 916.41,712.31 925.77,712.31 936.02,751.58 
			936.16,751.58 945.89,712.31 955.19,712.31 940.77,763.67 931.48,763.67 921.02,724.4 920.87,724.4 910.19,763.67 900.75,763.67 
					"/>
		<path class="st4" d="M985.99,741.8c-0.1-1.3-0.39-2.54-0.88-3.74c-0.44-1.2-1.07-2.23-1.9-3.09c-0.78-0.91-1.76-1.63-2.93-2.16
			c-1.12-0.58-2.39-0.86-3.8-0.86c-1.46,0-2.8,0.26-4.02,0.79c-1.17,0.48-2.19,1.17-3.07,2.09c-0.83,0.86-1.51,1.89-2.05,3.09
			c-0.49,1.2-0.76,2.49-0.81,3.88H985.99z M966.53,747.2c0,1.44,0.2,2.83,0.59,4.17c0.44,1.34,1.07,2.52,1.9,3.52
			c0.83,1.01,1.88,1.82,3.15,2.45c1.27,0.58,2.78,0.86,4.54,0.86c2.44,0,4.39-0.5,5.85-1.51c1.51-1.06,2.63-2.61,3.36-4.68h7.9
			c-0.44,2.01-1.19,3.81-2.27,5.39c-1.07,1.58-2.37,2.92-3.88,4.03c-1.51,1.05-3.22,1.85-5.12,2.37c-1.85,0.58-3.81,0.86-5.85,0.86
			c-2.98,0-5.61-0.48-7.9-1.44c-2.29-0.96-4.24-2.3-5.85-4.03c-1.56-1.73-2.76-3.79-3.58-6.19c-0.78-2.4-1.17-5.03-1.17-7.91
			c0-2.64,0.42-5.13,1.24-7.48c0.88-2.4,2.1-4.48,3.66-6.26c1.61-1.82,3.54-3.26,5.78-4.32c2.24-1.06,4.78-1.58,7.61-1.58
			c2.98,0,5.63,0.62,7.98,1.87c2.39,1.2,4.37,2.81,5.93,4.82c1.56,2.01,2.68,4.34,3.37,6.98c0.73,2.59,0.93,5.27,0.58,8.06H966.53z"
			/>
		<path class="st4" d="M1021.03,726.48h7.9v5.18h0.22c0.63-0.91,1.32-1.75,2.05-2.52c0.73-0.77,1.54-1.41,2.41-1.94
			c0.93-0.53,1.98-0.94,3.15-1.22c1.17-0.34,2.51-0.5,4.02-0.5c2.29,0,4.41,0.5,6.37,1.51c2,1.01,3.41,2.57,4.24,4.68
			c1.41-1.92,3.05-3.43,4.9-4.53c1.85-1.1,4.17-1.65,6.95-1.65c4,0,7.1,0.96,9.29,2.88c2.24,1.92,3.37,5.13,3.37,9.64v25.68h-8.34
			v-21.72c0-1.49-0.05-2.83-0.15-4.03c-0.1-1.25-0.39-2.3-0.88-3.17c-0.44-0.91-1.12-1.61-2.05-2.09c-0.93-0.48-2.19-0.72-3.8-0.72
			c-2.83,0-4.88,0.86-6.15,2.59c-1.27,1.73-1.9,4.17-1.9,7.34v21.79h-8.34v-23.88c0-2.59-0.49-4.53-1.46-5.83
			c-0.93-1.34-2.66-2.01-5.19-2.01c-1.07,0-2.12,0.22-3.15,0.65c-0.98,0.43-1.85,1.05-2.63,1.87c-0.73,0.82-1.34,1.82-1.83,3.02
			c-0.44,1.2-0.66,2.57-0.66,4.1v22.08h-8.34V726.48z"/>
		<path class="st4" d="M1116.36,755.4c0,1.01,0.12,1.73,0.37,2.16c0.29,0.43,0.83,0.65,1.61,0.65c0.24,0,0.54,0,0.88,0
			c0.34,0,0.73-0.05,1.17-0.14v5.68c-0.29,0.1-0.68,0.19-1.17,0.29c-0.44,0.14-0.9,0.26-1.39,0.36c-0.49,0.09-0.97,0.17-1.46,0.21
			c-0.49,0.05-0.9,0.07-1.24,0.07c-1.71,0-3.12-0.34-4.24-1.01c-1.12-0.67-1.85-1.85-2.2-3.52c-1.66,1.58-3.71,2.73-6.15,3.45
			c-2.39,0.72-4.71,1.08-6.95,1.08c-1.71,0-3.34-0.24-4.9-0.72c-1.56-0.43-2.95-1.08-4.17-1.94c-1.17-0.91-2.12-2.04-2.85-3.38
			c-0.68-1.39-1.02-3-1.02-4.82c0-2.3,0.41-4.17,1.24-5.61c0.88-1.44,2-2.56,3.36-3.38c1.41-0.82,2.98-1.39,4.68-1.73
			c1.76-0.38,3.51-0.67,5.27-0.86c1.51-0.29,2.95-0.48,4.32-0.58c1.36-0.14,2.56-0.36,3.58-0.65c1.07-0.29,1.9-0.72,2.49-1.29
			c0.63-0.62,0.95-1.53,0.95-2.73c0-1.06-0.27-1.92-0.8-2.59c-0.49-0.67-1.12-1.17-1.9-1.51c-0.73-0.38-1.56-0.62-2.49-0.72
			c-0.93-0.14-1.8-0.22-2.63-0.22c-2.34,0-4.27,0.48-5.78,1.44c-1.51,0.96-2.37,2.44-2.56,4.46h-8.34c0.15-2.4,0.73-4.39,1.76-5.97
			c1.02-1.58,2.32-2.85,3.88-3.81c1.61-0.96,3.41-1.63,5.41-2.01c2-0.38,4.05-0.58,6.15-0.58c1.85,0,3.68,0.19,5.49,0.58
			c1.8,0.38,3.41,1.01,4.83,1.87c1.46,0.86,2.63,1.99,3.51,3.38c0.88,1.34,1.32,3,1.32,4.96V755.4z M1108.02,745.04
			c-1.27,0.81-2.83,1.32-4.68,1.51c-1.85,0.14-3.71,0.38-5.56,0.72c-0.88,0.14-1.73,0.36-2.56,0.65c-0.83,0.24-1.56,0.6-2.2,1.08
			c-0.63,0.43-1.15,1.03-1.54,1.8c-0.34,0.72-0.51,1.61-0.51,2.66c0,0.91,0.27,1.68,0.81,2.3c0.54,0.62,1.17,1.13,1.9,1.51
			c0.78,0.34,1.61,0.58,2.49,0.72c0.93,0.14,1.76,0.22,2.49,0.22c0.93,0,1.93-0.12,3-0.36c1.07-0.24,2.07-0.65,3-1.22
			c0.98-0.58,1.78-1.3,2.41-2.16c0.63-0.91,0.95-2.01,0.95-3.31V745.04z"/>
		<polygon class="st4" points="1125.58,712.31 1133.92,712.31 1133.92,741.51 1149,726.48 1159.24,726.48 1144.75,740.15 
			1160.63,763.67 1150.46,763.67 1138.9,745.61 1133.92,750.36 1133.92,763.67 1125.58,763.67 		"/>
		<path class="st4" d="M1190.62,741.8c-0.1-1.3-0.39-2.54-0.88-3.74c-0.44-1.2-1.07-2.23-1.9-3.09c-0.78-0.91-1.76-1.63-2.93-2.16
			c-1.12-0.58-2.39-0.86-3.81-0.86c-1.46,0-2.8,0.26-4.02,0.79c-1.17,0.48-2.19,1.17-3.07,2.09c-0.83,0.86-1.51,1.89-2.05,3.09
			c-0.49,1.2-0.76,2.49-0.81,3.88H1190.62z M1171.16,747.2c0,1.44,0.2,2.83,0.59,4.17c0.44,1.34,1.07,2.52,1.9,3.52
			c0.83,1.01,1.88,1.82,3.15,2.45c1.27,0.58,2.78,0.86,4.54,0.86c2.44,0,4.39-0.5,5.85-1.51c1.51-1.06,2.63-2.61,3.36-4.68h7.9
			c-0.44,2.01-1.19,3.81-2.27,5.39c-1.07,1.58-2.37,2.92-3.88,4.03c-1.51,1.05-3.22,1.85-5.12,2.37c-1.85,0.58-3.8,0.86-5.85,0.86
			c-2.98,0-5.61-0.48-7.9-1.44c-2.29-0.96-4.24-2.3-5.85-4.03c-1.56-1.73-2.76-3.79-3.58-6.19c-0.78-2.4-1.17-5.03-1.17-7.91
			c0-2.64,0.42-5.13,1.24-7.48c0.88-2.4,2.1-4.48,3.66-6.26c1.61-1.82,3.54-3.26,5.78-4.32c2.24-1.06,4.78-1.58,7.61-1.58
			c2.98,0,5.63,0.62,7.98,1.87c2.39,1.2,4.36,2.81,5.93,4.82s2.68,4.34,3.37,6.98c0.73,2.59,0.93,5.27,0.58,8.06H1171.16z"/>
		<path class="st4" d="M1221.5,726.48h9.15l9.88,27.76h0.15l9.58-27.76h8.71l-14.71,39.2c-0.68,1.68-1.37,3.28-2.05,4.82
			c-0.63,1.54-1.44,2.88-2.41,4.03c-0.93,1.2-2.1,2.14-3.51,2.81c-1.41,0.72-3.22,1.08-5.41,1.08c-1.95,0-3.88-0.14-5.78-0.43v-6.9
			c0.68,0.1,1.34,0.19,1.98,0.29c0.63,0.14,1.29,0.22,1.97,0.22c0.98,0,1.78-0.12,2.41-0.36c0.63-0.24,1.15-0.6,1.54-1.08
			c0.44-0.43,0.81-0.96,1.1-1.58c0.29-0.62,0.56-1.34,0.81-2.16l0.95-2.88L1221.5,726.48z"/>
		<path class="st4" d="M1280.98,764.67c-3.02,0-5.73-0.48-8.12-1.44c-2.34-1.01-4.34-2.37-6-4.1c-1.61-1.73-2.85-3.79-3.73-6.19
			c-0.83-2.4-1.24-5.04-1.24-7.91c0-2.83,0.41-5.44,1.24-7.84c0.88-2.4,2.12-4.46,3.73-6.19c1.66-1.73,3.66-3.07,6-4.03
			c2.39-1.01,5.1-1.51,8.12-1.51c3.02,0,5.71,0.5,8.05,1.51c2.39,0.96,4.39,2.3,6,4.03c1.66,1.73,2.9,3.79,3.73,6.19
			c0.88,2.4,1.32,5.01,1.32,7.84c0,2.88-0.44,5.51-1.32,7.91c-0.83,2.4-2.07,4.46-3.73,6.19c-1.61,1.73-3.61,3.09-6,4.1
			C1286.69,764.19,1284.01,764.67,1280.98,764.67z M1280.98,758.2c1.85,0,3.46-0.38,4.83-1.15c1.37-0.77,2.49-1.77,3.37-3.02
			c0.88-1.25,1.51-2.64,1.9-4.17c0.44-1.58,0.66-3.19,0.66-4.82c0-1.58-0.22-3.17-0.66-4.75c-0.39-1.58-1.02-2.97-1.9-4.17
			c-0.88-1.25-2-2.25-3.37-3.02c-1.37-0.77-2.98-1.15-4.83-1.15c-1.85,0-3.46,0.38-4.83,1.15c-1.37,0.77-2.49,1.77-3.37,3.02
			c-0.88,1.2-1.54,2.59-1.98,4.17c-0.39,1.58-0.59,3.17-0.59,4.75c0,1.63,0.2,3.24,0.59,4.82c0.44,1.53,1.1,2.92,1.98,4.17
			c0.88,1.25,2,2.25,3.37,3.02C1277.52,757.82,1279.13,758.2,1280.98,758.2z"/>
		<path class="st4" d="M1340.24,763.67h-8.19v-5.18h-0.15c-1.02,1.87-2.56,3.38-4.61,4.53c-2,1.1-4.05,1.65-6.15,1.65
			c-4.97,0-8.58-1.2-10.83-3.6c-2.19-2.44-3.29-6.11-3.29-11v-23.59h8.34v22.8c0,3.26,0.63,5.56,1.9,6.91
			c1.27,1.34,3.05,2.01,5.34,2.01c1.76,0,3.22-0.26,4.39-0.79c1.17-0.53,2.12-1.22,2.85-2.09c0.73-0.91,1.24-1.99,1.54-3.24
			c0.34-1.25,0.51-2.59,0.51-4.03v-21.58h8.34V763.67z"/>
		<path class="st4" d="M1349.02,726.48h7.83v7.19h0.15c0.24-1.01,0.71-1.99,1.39-2.95c0.73-0.96,1.59-1.82,2.56-2.59
			c1.02-0.82,2.15-1.46,3.37-1.94c1.22-0.48,2.46-0.72,3.73-0.72c0.98,0,1.63,0.02,1.98,0.07c0.39,0.05,0.78,0.1,1.17,0.14v7.91
			c-0.58-0.1-1.19-0.17-1.83-0.21c-0.59-0.1-1.17-0.14-1.76-0.14c-1.41,0-2.76,0.29-4.02,0.86c-1.22,0.53-2.29,1.34-3.22,2.45
			c-0.93,1.06-1.66,2.37-2.2,3.96c-0.54,1.58-0.8,3.4-0.8,5.47v17.69h-8.34V726.48z"/>
		<polygon class="st4" points="1391.68,726.48 1400.53,726.48 1407.92,754.25 1408.07,754.25 1415.16,726.48 1423.58,726.48 
			1430.38,754.25 1430.53,754.25 1438.21,726.48 1446.7,726.48 1434.84,763.67 1426.28,763.67 1419.26,736.05 1419.11,736.05 
			1412.16,763.67 1403.38,763.67 		"/>
		<path class="st4" d="M1469.38,764.67c-3.02,0-5.73-0.48-8.12-1.44c-2.34-1.01-4.34-2.37-6-4.1c-1.61-1.73-2.85-3.79-3.73-6.19
			c-0.83-2.4-1.24-5.04-1.24-7.91c0-2.83,0.41-5.44,1.24-7.84c0.88-2.4,2.12-4.46,3.73-6.19c1.66-1.73,3.66-3.07,6-4.03
			c2.39-1.01,5.1-1.51,8.12-1.51c3.02,0,5.71,0.5,8.05,1.51c2.39,0.96,4.39,2.3,6,4.03c1.66,1.73,2.9,3.79,3.73,6.19
			c0.88,2.4,1.32,5.01,1.32,7.84c0,2.88-0.44,5.51-1.32,7.91c-0.83,2.4-2.07,4.46-3.73,6.19c-1.61,1.73-3.61,3.09-6,4.1
			C1475.08,764.19,1472.4,764.67,1469.38,764.67z M1469.38,758.2c1.85,0,3.46-0.38,4.83-1.15c1.37-0.77,2.49-1.77,3.37-3.02
			c0.88-1.25,1.51-2.64,1.9-4.17c0.44-1.58,0.66-3.19,0.66-4.82c0-1.58-0.22-3.17-0.66-4.75c-0.39-1.58-1.02-2.97-1.9-4.17
			c-0.88-1.25-2-2.25-3.37-3.02c-1.37-0.77-2.98-1.15-4.83-1.15c-1.85,0-3.46,0.38-4.83,1.15c-1.37,0.77-2.49,1.77-3.36,3.02
			c-0.88,1.2-1.54,2.59-1.98,4.17c-0.39,1.58-0.58,3.17-0.58,4.75c0,1.63,0.2,3.24,0.58,4.82c0.44,1.53,1.1,2.92,1.98,4.17
			c0.88,1.25,2,2.25,3.36,3.02C1465.91,757.82,1467.52,758.2,1469.38,758.2z"/>
		<path class="st4" d="M1495.42,726.48h7.83v7.19h0.15c0.24-1.01,0.71-1.99,1.39-2.95c0.73-0.96,1.59-1.82,2.56-2.59
			c1.02-0.82,2.15-1.46,3.37-1.94c1.22-0.48,2.46-0.72,3.73-0.72c0.98,0,1.63,0.02,1.97,0.07c0.39,0.05,0.78,0.1,1.17,0.14v7.91
			c-0.59-0.1-1.19-0.17-1.83-0.21c-0.59-0.1-1.17-0.14-1.76-0.14c-1.41,0-2.76,0.29-4.02,0.86c-1.22,0.53-2.29,1.34-3.22,2.45
			c-0.93,1.06-1.66,2.37-2.19,3.96c-0.54,1.58-0.81,3.4-0.81,5.47v17.69h-8.34V726.48z"/>
		<rect x="1523.59" y="712.31" class="st4" width="8.34" height="51.36"/>
		<path class="st4" d="M1576.63,763.67h-7.9v-5.03h-0.15c-1.12,2.16-2.76,3.72-4.9,4.68c-2.15,0.91-4.41,1.36-6.8,1.36
			c-2.97,0-5.59-0.5-7.83-1.51c-2.19-1.05-4.02-2.47-5.49-4.24c-1.46-1.77-2.56-3.86-3.29-6.26c-0.73-2.45-1.1-5.06-1.1-7.84
			c0-3.36,0.46-6.26,1.39-8.7c0.93-2.45,2.15-4.46,3.66-6.04c1.56-1.58,3.32-2.73,5.27-3.45c2-0.77,4.02-1.15,6.07-1.15
			c1.17,0,2.37,0.12,3.59,0.36c1.22,0.19,2.39,0.53,3.51,1.01c1.12,0.48,2.15,1.1,3.07,1.87c0.98,0.72,1.78,1.58,2.41,2.59h0.15
			v-18.99h8.34V763.67z M1547.51,745.47c0,1.58,0.2,3.14,0.59,4.68c0.44,1.53,1.07,2.9,1.9,4.1c0.88,1.2,1.98,2.16,3.29,2.88
			c1.32,0.72,2.88,1.08,4.68,1.08c1.85,0,3.44-0.38,4.76-1.15c1.37-0.77,2.46-1.77,3.29-3.02c0.88-1.25,1.51-2.64,1.9-4.17
			c0.44-1.58,0.66-3.19,0.66-4.82c0-4.12-0.95-7.34-2.85-9.64c-1.85-2.3-4.39-3.45-7.61-3.45c-1.95,0-3.61,0.41-4.97,1.22
			c-1.32,0.77-2.41,1.8-3.29,3.09c-0.83,1.25-1.44,2.69-1.83,4.32C1547.68,742.16,1547.51,743.79,1547.51,745.47z"/>
		<path class="st4" d="M1632.02,741.8c-0.1-1.3-0.39-2.54-0.88-3.74c-0.44-1.2-1.07-2.23-1.9-3.09c-0.78-0.91-1.76-1.63-2.93-2.16
			c-1.12-0.58-2.39-0.86-3.8-0.86c-1.46,0-2.8,0.26-4.02,0.79c-1.17,0.48-2.19,1.17-3.07,2.09c-0.83,0.86-1.51,1.89-2.05,3.09
			c-0.49,1.2-0.76,2.49-0.8,3.88H1632.02z M1612.55,747.2c0,1.44,0.19,2.83,0.59,4.17c0.44,1.34,1.07,2.52,1.9,3.52
			c0.83,1.01,1.88,1.82,3.15,2.45c1.27,0.58,2.78,0.86,4.54,0.86c2.44,0,4.39-0.5,5.85-1.51c1.51-1.06,2.63-2.61,3.37-4.68h7.9
			c-0.44,2.01-1.19,3.81-2.27,5.39c-1.07,1.58-2.37,2.92-3.88,4.03c-1.51,1.05-3.22,1.85-5.12,2.37c-1.85,0.58-3.8,0.86-5.85,0.86
			c-2.98,0-5.61-0.48-7.9-1.44c-2.29-0.96-4.24-2.3-5.85-4.03c-1.56-1.73-2.76-3.79-3.58-6.19c-0.78-2.4-1.17-5.03-1.17-7.91
			c0-2.64,0.42-5.13,1.24-7.48c0.88-2.4,2.1-4.48,3.66-6.26c1.61-1.82,3.54-3.26,5.78-4.32c2.24-1.06,4.78-1.58,7.61-1.58
			c2.98,0,5.63,0.62,7.98,1.87c2.39,1.2,4.37,2.81,5.93,4.82c1.56,2.01,2.68,4.34,3.37,6.98c0.73,2.59,0.93,5.27,0.58,8.06H1612.55z
			"/>
		<path class="st4" d="M1678.4,755.4c0,1.01,0.12,1.73,0.37,2.16c0.29,0.43,0.83,0.65,1.61,0.65c0.24,0,0.54,0,0.88,0
			c0.34,0,0.73-0.05,1.17-0.14v5.68c-0.29,0.1-0.68,0.19-1.17,0.29c-0.44,0.14-0.9,0.26-1.39,0.36c-0.49,0.09-0.97,0.17-1.46,0.21
			c-0.49,0.05-0.9,0.07-1.24,0.07c-1.71,0-3.12-0.34-4.24-1.01c-1.12-0.67-1.85-1.85-2.2-3.52c-1.66,1.58-3.71,2.73-6.15,3.45
			c-2.39,0.72-4.71,1.08-6.95,1.08c-1.71,0-3.34-0.24-4.9-0.72c-1.56-0.43-2.95-1.08-4.17-1.94c-1.17-0.91-2.12-2.04-2.85-3.38
			c-0.68-1.39-1.02-3-1.02-4.82c0-2.3,0.41-4.17,1.24-5.61c0.88-1.44,2-2.56,3.37-3.38c1.41-0.82,2.98-1.39,4.68-1.73
			c1.76-0.38,3.51-0.67,5.27-0.86c1.51-0.29,2.95-0.48,4.32-0.58c1.37-0.14,2.56-0.36,3.58-0.65c1.07-0.29,1.9-0.72,2.49-1.29
			c0.63-0.62,0.95-1.53,0.95-2.73c0-1.06-0.27-1.92-0.8-2.59c-0.49-0.67-1.12-1.17-1.9-1.51c-0.73-0.38-1.56-0.62-2.49-0.72
			c-0.93-0.14-1.8-0.22-2.63-0.22c-2.34,0-4.27,0.48-5.78,1.44c-1.51,0.96-2.37,2.44-2.56,4.46h-8.34c0.15-2.4,0.73-4.39,1.76-5.97
			c1.02-1.58,2.32-2.85,3.88-3.81c1.61-0.96,3.41-1.63,5.41-2.01c2-0.38,4.05-0.58,6.15-0.58c1.85,0,3.68,0.19,5.49,0.58
			c1.81,0.38,3.41,1.01,4.83,1.87c1.46,0.86,2.63,1.99,3.51,3.38c0.88,1.34,1.32,3,1.32,4.96V755.4z M1670.06,745.04
			c-1.27,0.81-2.83,1.32-4.68,1.51c-1.85,0.14-3.71,0.38-5.56,0.72c-0.88,0.14-1.73,0.36-2.56,0.65c-0.83,0.24-1.56,0.6-2.19,1.08
			c-0.63,0.43-1.15,1.03-1.54,1.8c-0.34,0.72-0.51,1.61-0.51,2.66c0,0.91,0.27,1.68,0.8,2.3c0.54,0.62,1.17,1.13,1.9,1.51
			c0.78,0.34,1.61,0.58,2.49,0.72c0.93,0.14,1.76,0.22,2.49,0.22c0.93,0,1.93-0.12,3-0.36c1.07-0.24,2.07-0.65,3-1.22
			c0.98-0.58,1.78-1.3,2.41-2.16c0.63-0.91,0.95-2.01,0.95-3.31V745.04z"/>
		<path class="st4" d="M1693.69,751.73c0.24,2.4,1.17,4.08,2.78,5.03c1.61,0.96,3.54,1.44,5.78,1.44c0.78,0,1.66-0.05,2.63-0.14
			c1.02-0.14,1.97-0.38,2.85-0.72c0.88-0.34,1.59-0.81,2.12-1.44c0.59-0.67,0.85-1.53,0.81-2.59c-0.05-1.05-0.44-1.92-1.17-2.59
			c-0.73-0.67-1.68-1.2-2.85-1.58c-1.12-0.43-2.41-0.79-3.88-1.08c-1.46-0.29-2.95-0.6-4.46-0.94c-1.56-0.34-3.07-0.74-4.54-1.22
			c-1.41-0.48-2.71-1.13-3.88-1.94c-1.12-0.82-2.02-1.85-2.71-3.09c-0.68-1.29-1.02-2.88-1.02-4.75c0-2.01,0.49-3.69,1.46-5.03
			c1.02-1.39,2.29-2.49,3.8-3.31c1.56-0.86,3.27-1.46,5.12-1.8c1.9-0.34,3.71-0.5,5.41-0.5c1.95,0,3.81,0.22,5.56,0.65
			c1.81,0.38,3.41,1.03,4.83,1.94c1.46,0.91,2.66,2.11,3.59,3.6c0.98,1.44,1.59,3.19,1.83,5.25h-8.71
			c-0.39-1.97-1.32-3.28-2.78-3.96c-1.41-0.67-3.05-1.01-4.9-1.01c-0.58,0-1.29,0.05-2.12,0.14c-0.78,0.1-1.54,0.29-2.27,0.58
			c-0.68,0.24-1.27,0.62-1.76,1.15c-0.49,0.48-0.73,1.13-0.73,1.94c0,1.01,0.34,1.82,1.02,2.45c0.73,0.62,1.66,1.15,2.78,1.58
			c1.17,0.38,2.49,0.72,3.95,1.01c1.46,0.29,2.98,0.6,4.54,0.94c1.51,0.34,3,0.74,4.46,1.22c1.46,0.48,2.76,1.13,3.88,1.94
			c1.17,0.81,2.1,1.85,2.78,3.09c0.73,1.25,1.1,2.78,1.1,4.6c0,2.21-0.51,4.08-1.54,5.61c-1.02,1.53-2.37,2.78-4.02,3.74
			c-1.61,0.96-3.41,1.65-5.41,2.08c-2,0.43-3.98,0.65-5.93,0.65c-2.39,0-4.61-0.26-6.66-0.79c-2-0.53-3.76-1.32-5.27-2.37
			c-1.46-1.1-2.63-2.45-3.51-4.03c-0.83-1.63-1.27-3.55-1.32-5.75H1693.69z"/>
		<path class="st4" d="M1725.59,712.31h8.34v7.77h-8.34V712.31z M1725.59,726.48h8.34v37.19h-8.34V726.48z"/>
		<path class="st4" d="M1768.98,741.8c-0.1-1.3-0.39-2.54-0.88-3.74c-0.44-1.2-1.07-2.23-1.9-3.09c-0.78-0.91-1.76-1.63-2.93-2.16
			c-1.12-0.58-2.39-0.86-3.8-0.86c-1.46,0-2.8,0.26-4.02,0.79c-1.17,0.48-2.19,1.17-3.07,2.09c-0.83,0.86-1.51,1.89-2.05,3.09
			c-0.49,1.2-0.76,2.49-0.81,3.88H1768.98z M1749.52,747.2c0,1.44,0.2,2.83,0.59,4.17c0.44,1.34,1.07,2.52,1.9,3.52
			c0.83,1.01,1.88,1.82,3.15,2.45c1.27,0.58,2.78,0.86,4.54,0.86c2.44,0,4.39-0.5,5.85-1.51c1.51-1.06,2.63-2.61,3.36-4.68h7.9
			c-0.44,2.01-1.19,3.81-2.27,5.39c-1.07,1.58-2.37,2.92-3.88,4.03c-1.51,1.05-3.22,1.85-5.12,2.37c-1.85,0.58-3.81,0.86-5.85,0.86
			c-2.98,0-5.61-0.48-7.9-1.44c-2.29-0.96-4.24-2.3-5.85-4.03c-1.56-1.73-2.75-3.79-3.58-6.19c-0.78-2.4-1.17-5.03-1.17-7.91
			c0-2.64,0.42-5.13,1.24-7.48c0.88-2.4,2.1-4.48,3.66-6.26c1.61-1.82,3.54-3.26,5.78-4.32c2.24-1.06,4.78-1.58,7.61-1.58
			c2.98,0,5.63,0.62,7.98,1.87c2.39,1.2,4.37,2.81,5.93,4.82c1.56,2.01,2.68,4.34,3.37,6.98c0.73,2.59,0.93,5.27,0.58,8.06H1749.52z
			"/>
		<path class="st4" d="M1783.68,726.48h7.83v7.19h0.15c0.24-1.01,0.71-1.99,1.39-2.95c0.73-0.96,1.59-1.82,2.56-2.59
			c1.02-0.82,2.15-1.46,3.37-1.94c1.22-0.48,2.46-0.72,3.73-0.72c0.98,0,1.63,0.02,1.97,0.07c0.39,0.05,0.78,0.1,1.17,0.14v7.91
			c-0.59-0.1-1.19-0.17-1.83-0.21c-0.59-0.1-1.17-0.14-1.76-0.14c-1.41,0-2.76,0.29-4.02,0.86c-1.22,0.53-2.29,1.34-3.22,2.45
			c-0.93,1.06-1.66,2.37-2.19,3.96c-0.54,1.58-0.81,3.4-0.81,5.47v17.69h-8.34V726.48z"/>
		<rect x="1810.1" y="753.96" class="st4" width="10.17" height="9.71"/>
	</g>
</g>
</svg>
