<?xml version="1.0" encoding="utf-8"?>
<!-- Generator: Adobe Illustrator 27.8.1, SVG Export Plug-In . SVG Version: 6.00 Build 0)  -->
<svg version="1.1" id="Layer_1" xmlns="http://www.w3.org/2000/svg" xmlns:xlink="http://www.w3.org/1999/xlink" x="0px" y="0px"
	 viewBox="0 0 1920 1080" style="enable-background:new 0 0 1920 1080;" xml:space="preserve">
<style type="text/css">
	.st0{fill:#898B8E;}
	.st1{fill:#E64134;}
	.st2{fill:#010101;}
	.st3{fill-rule:evenodd;clip-rule:evenodd;fill:#010101;}
</style>
<g>
	<g>
		<polygon class="st0" points="313.59,738.94 590.1,738.94 622.49,683.84 345.71,683.84 		"/>
		<polygon class="st0" points="359.82,660.33 708.06,660.33 740.64,605.23 391.95,605.23 		"/>
		<polygon class="st1" points="329.58,394.33 126.89,739.08 192.19,739.08 361.95,449.63 		"/>
		<polygon class="st1" points="375.61,474.65 220.07,738.94 284.32,738.94 407.61,528.26 		"/>
		<polygon class="st2" points="625.57,582.83 486.78,346.48 422.32,346.69 561.11,583.06 		"/>
		<polygon class="st2" points="533.08,582.83 376.05,315.34 311.57,315.57 468.62,583.06 		"/>
	</g>
	<g>
		<g>
			<path class="st2" d="M976.11,553.39h-66.15l32.41-112.61L976.11,553.39L976.11,553.39z M877.99,660.33l11.99-41.46h104.33
				l12.43,41.46h104.33L996.53,346.07H889.98L775.44,660.33H877.99L877.99,660.33z"/>
			<polygon class="st2" points="1228.34,346.07 1130.22,346.07 1130.22,660.33 1230.56,660.33 1226.56,489.23 1340.66,660.33 
				1438.77,660.33 1438.77,346.07 1338.44,346.07 1342.43,517.6 1228.34,346.07 			"/>
			<path class="st2" d="M1658.15,553.39H1592l32.41-112.61L1658.15,553.39L1658.15,553.39z M1560.03,660.33l11.99-41.46h104.32
				l12.43,41.46h104.33l-114.54-314.25h-106.55l-114.54,314.25H1560.03L1560.03,660.33z"/>
		</g>
		<g>
			<polygon class="st3" points="774.79,692.58 784.92,692.58 795.21,735.4 795.37,735.4 806.86,692.58 817.07,692.58 828.24,735.4 
				828.4,735.4 839.01,692.58 849.14,692.58 833.43,748.58 823.3,748.58 811.89,705.76 811.73,705.76 800.08,748.58 789.79,748.58 
							"/>
			<path class="st3" d="M882.73,724.74c-0.11-1.41-0.43-2.77-0.96-4.08c-0.48-1.31-1.17-2.43-2.07-3.37
				c-0.85-0.99-1.92-1.78-3.19-2.35c-1.22-0.63-2.61-0.94-4.15-0.94c-1.59,0-3.06,0.29-4.39,0.86c-1.28,0.52-2.39,1.28-3.35,2.28
				c-0.9,0.94-1.65,2.06-2.23,3.37c-0.53,1.31-0.82,2.72-0.88,4.24H882.73z M861.51,730.62c0,1.57,0.21,3.09,0.64,4.55
				c0.48,1.46,1.17,2.75,2.07,3.84c0.9,1.1,2.05,1.99,3.43,2.67c1.38,0.63,3.03,0.94,4.95,0.94c2.66,0,4.79-0.55,6.38-1.65
				c1.65-1.15,2.87-2.85,3.67-5.1h8.62c-0.48,2.2-1.3,4.16-2.47,5.88c-1.17,1.73-2.58,3.19-4.23,4.39
				c-1.65,1.15-3.51,2.01-5.58,2.59c-2.02,0.63-4.15,0.94-6.38,0.94c-3.24,0-6.12-0.52-8.62-1.57c-2.5-1.05-4.63-2.51-6.38-4.39
				c-1.7-1.88-3-4.13-3.91-6.75c-0.85-2.61-1.28-5.49-1.28-8.63c0-2.88,0.45-5.59,1.36-8.16c0.96-2.61,2.29-4.89,3.99-6.82
				c1.76-1.99,3.86-3.56,6.3-4.71c2.45-1.15,5.21-1.73,8.3-1.73c3.24,0,6.14,0.68,8.7,2.04c2.61,1.31,4.76,3.06,6.46,5.26
				c1.7,2.2,2.93,4.73,3.67,7.61c0.8,2.82,1.01,5.75,0.64,8.78H861.51z"/>
			<path class="st3" d="M920.95,708.03h8.62v5.65h0.24c0.69-0.99,1.44-1.91,2.23-2.75c0.8-0.84,1.68-1.54,2.63-2.12
				c1.01-0.58,2.15-1.02,3.43-1.33c1.28-0.37,2.74-0.55,4.39-0.55c2.5,0,4.81,0.55,6.94,1.65c2.18,1.1,3.72,2.8,4.63,5.1
				c1.54-2.09,3.32-3.74,5.35-4.94c2.02-1.2,4.55-1.8,7.58-1.8c4.36,0,7.74,1.05,10.13,3.14c2.45,2.09,3.67,5.59,3.67,10.51v28
				h-9.09v-23.69c0-1.62-0.05-3.09-0.16-4.39c-0.11-1.36-0.43-2.51-0.96-3.45c-0.48-0.99-1.22-1.75-2.23-2.28
				c-1.01-0.52-2.39-0.78-4.15-0.78c-3.08,0-5.32,0.94-6.7,2.82c-1.38,1.88-2.07,4.55-2.07,8v23.76h-9.09v-26.04
				c0-2.82-0.53-4.94-1.6-6.35c-1.01-1.46-2.9-2.2-5.66-2.2c-1.17,0-2.31,0.24-3.43,0.71c-1.06,0.47-2.02,1.15-2.87,2.04
				c-0.8,0.89-1.46,1.99-1.99,3.29c-0.48,1.31-0.72,2.8-0.72,4.47v24.08h-9.09V708.03z"/>
			<path class="st3" d="M1024.9,739.56c0,1.1,0.13,1.88,0.4,2.35c0.32,0.47,0.9,0.71,1.76,0.71c0.27,0,0.59,0,0.96,0
				c0.37,0,0.8-0.05,1.28-0.16v6.19c-0.32,0.1-0.74,0.21-1.28,0.31c-0.48,0.16-0.98,0.29-1.52,0.39c-0.53,0.1-1.06,0.18-1.59,0.23
				c-0.53,0.05-0.98,0.08-1.36,0.08c-1.86,0-3.41-0.37-4.63-1.1c-1.22-0.73-2.02-2.01-2.39-3.84c-1.81,1.73-4.04,2.98-6.7,3.77
				c-2.6,0.78-5.13,1.18-7.58,1.18c-1.86,0-3.64-0.26-5.35-0.78c-1.7-0.47-3.22-1.18-4.55-2.12c-1.28-0.99-2.31-2.22-3.11-3.69
				c-0.75-1.52-1.12-3.27-1.12-5.26c0-2.51,0.45-4.55,1.36-6.12c0.96-1.57,2.18-2.8,3.67-3.69c1.54-0.89,3.25-1.52,5.11-1.88
				c1.92-0.42,3.83-0.73,5.74-0.94c1.65-0.31,3.22-0.52,4.71-0.63c1.49-0.16,2.79-0.39,3.91-0.71c1.17-0.31,2.07-0.78,2.71-1.41
				c0.69-0.68,1.04-1.67,1.04-2.98c0-1.15-0.29-2.09-0.88-2.82c-0.53-0.73-1.22-1.28-2.07-1.65c-0.8-0.42-1.7-0.68-2.71-0.78
				c-1.01-0.16-1.97-0.24-2.87-0.24c-2.55,0-4.65,0.52-6.3,1.57c-1.65,1.05-2.58,2.67-2.79,4.86h-9.09c0.16-2.61,0.8-4.78,1.92-6.51
				c1.12-1.73,2.53-3.11,4.23-4.16c1.76-1.05,3.72-1.78,5.9-2.2c2.18-0.42,4.41-0.63,6.7-0.63c2.02,0,4.02,0.21,5.98,0.63
				c1.97,0.42,3.72,1.1,5.26,2.04c1.6,0.94,2.87,2.17,3.83,3.69c0.96,1.46,1.44,3.27,1.44,5.41V739.56z M1015.81,728.27
				c-1.38,0.89-3.08,1.44-5.11,1.65c-2.02,0.16-4.04,0.42-6.06,0.78c-0.96,0.16-1.89,0.39-2.79,0.71c-0.9,0.26-1.7,0.65-2.39,1.18
				c-0.69,0.47-1.25,1.12-1.68,1.96c-0.37,0.78-0.56,1.75-0.56,2.9c0,1,0.29,1.83,0.88,2.51c0.58,0.68,1.28,1.23,2.07,1.65
				c0.85,0.37,1.75,0.63,2.71,0.78c1.01,0.16,1.92,0.24,2.71,0.24c1.01,0,2.1-0.13,3.27-0.39c1.17-0.26,2.26-0.71,3.27-1.33
				c1.06-0.63,1.94-1.41,2.63-2.35c0.69-0.99,1.04-2.2,1.04-3.61V728.27z"/>
			<polygon class="st3" points="1034.95,692.58 1044.05,692.58 1044.05,724.42 1060.48,708.03 1071.65,708.03 1055.86,722.93 
				1073.17,748.58 1062.08,748.58 1049.47,728.89 1044.05,734.07 1044.05,748.58 1034.95,748.58 			"/>
			<path class="st3" d="M1105.88,724.74c-0.11-1.41-0.43-2.77-0.96-4.08c-0.48-1.31-1.17-2.43-2.07-3.37
				c-0.85-0.99-1.91-1.78-3.19-2.35c-1.22-0.63-2.61-0.94-4.15-0.94c-1.59,0-3.06,0.29-4.39,0.86c-1.28,0.52-2.39,1.28-3.35,2.28
				c-0.9,0.94-1.65,2.06-2.23,3.37c-0.53,1.31-0.82,2.72-0.88,4.24H1105.88z M1084.66,730.62c0,1.57,0.21,3.09,0.64,4.55
				c0.48,1.46,1.17,2.75,2.07,3.84c0.9,1.1,2.05,1.99,3.43,2.67c1.38,0.63,3.03,0.94,4.95,0.94c2.66,0,4.79-0.55,6.38-1.65
				c1.65-1.15,2.87-2.85,3.67-5.1h8.62c-0.48,2.2-1.3,4.16-2.47,5.88c-1.17,1.73-2.58,3.19-4.23,4.39
				c-1.65,1.15-3.51,2.01-5.58,2.59c-2.02,0.63-4.15,0.94-6.38,0.94c-3.24,0-6.12-0.52-8.62-1.57c-2.5-1.05-4.63-2.51-6.38-4.39
				c-1.7-1.88-3-4.13-3.91-6.75c-0.85-2.61-1.28-5.49-1.28-8.63c0-2.88,0.45-5.59,1.36-8.16c0.96-2.61,2.29-4.89,3.99-6.82
				c1.76-1.99,3.86-3.56,6.3-4.71c2.45-1.15,5.21-1.73,8.3-1.73c3.24,0,6.14,0.68,8.7,2.04c2.61,1.31,4.76,3.06,6.46,5.26
				c1.7,2.2,2.93,4.73,3.67,7.61c0.8,2.82,1.01,5.75,0.64,8.78H1084.66z"/>
			<path class="st3" d="M1139.55,708.03h9.97l10.77,30.28h0.16l10.45-30.28h9.49l-16.04,42.75c-0.74,1.83-1.49,3.58-2.23,5.25
				c-0.69,1.67-1.57,3.14-2.63,4.39c-1.01,1.31-2.29,2.33-3.83,3.06c-1.54,0.78-3.51,1.18-5.9,1.18c-2.13,0-4.23-0.16-6.3-0.47
				v-7.53c0.75,0.1,1.46,0.21,2.15,0.31c0.69,0.16,1.41,0.23,2.15,0.23c1.06,0,1.94-0.13,2.63-0.39c0.69-0.26,1.25-0.65,1.68-1.18
				c0.48-0.47,0.88-1.05,1.2-1.73c0.32-0.68,0.61-1.46,0.88-2.35l1.04-3.14L1139.55,708.03z"/>
			<path class="st3" d="M1204.41,749.68c-3.3,0-6.25-0.52-8.86-1.57c-2.55-1.1-4.73-2.59-6.54-4.47c-1.76-1.88-3.11-4.13-4.07-6.75
				c-0.9-2.62-1.36-5.49-1.36-8.63c0-3.09,0.45-5.94,1.36-8.55c0.96-2.61,2.31-4.86,4.07-6.75c1.81-1.88,3.99-3.35,6.54-4.39
				c2.61-1.1,5.56-1.65,8.86-1.65c3.3,0,6.22,0.55,8.78,1.65c2.61,1.05,4.79,2.51,6.54,4.39c1.81,1.88,3.16,4.13,4.07,6.75
				c0.96,2.61,1.44,5.46,1.44,8.55c0,3.14-0.48,6.01-1.44,8.63c-0.9,2.61-2.26,4.86-4.07,6.75c-1.76,1.88-3.94,3.37-6.54,4.47
				C1210.63,749.16,1207.71,749.68,1204.41,749.68z M1204.41,742.62c2.02,0,3.78-0.42,5.26-1.26c1.49-0.84,2.71-1.93,3.67-3.29
				c0.96-1.36,1.65-2.88,2.07-4.55c0.48-1.73,0.72-3.48,0.72-5.26c0-1.73-0.24-3.45-0.72-5.18c-0.43-1.72-1.12-3.24-2.07-4.55
				c-0.96-1.36-2.18-2.46-3.67-3.29c-1.49-0.84-3.24-1.26-5.26-1.26c-2.02,0-3.78,0.42-5.27,1.26c-1.49,0.84-2.71,1.93-3.67,3.29
				c-0.96,1.31-1.68,2.82-2.15,4.55c-0.43,1.73-0.64,3.45-0.64,5.18c0,1.78,0.21,3.53,0.64,5.26c0.48,1.67,1.2,3.19,2.15,4.55
				c0.96,1.36,2.18,2.46,3.67,3.29C1200.63,742.2,1202.39,742.62,1204.41,742.62z"/>
			<path class="st3" d="M1269.03,748.58h-8.94v-5.65h-0.16c-1.12,2.04-2.79,3.69-5.03,4.94c-2.18,1.2-4.41,1.8-6.7,1.8
				c-5.42,0-9.36-1.31-11.81-3.92c-2.39-2.67-3.59-6.67-3.59-12v-25.73h9.09v24.86c0,3.56,0.69,6.07,2.07,7.53
				c1.38,1.46,3.32,2.2,5.82,2.2c1.92,0,3.51-0.29,4.79-0.86c1.28-0.58,2.31-1.33,3.11-2.28c0.8-0.99,1.36-2.17,1.68-3.53
				c0.37-1.36,0.56-2.82,0.56-4.39v-23.53h9.09V748.58z"/>
			<path class="st3" d="M1278.6,708.03h8.54v7.84h0.16c0.27-1.1,0.77-2.17,1.52-3.22c0.8-1.05,1.73-1.99,2.79-2.82
				c1.12-0.89,2.34-1.6,3.67-2.12c1.33-0.52,2.69-0.78,4.07-0.78c1.06,0,1.78,0.03,2.15,0.08c0.43,0.05,0.85,0.11,1.28,0.16v8.63
				c-0.64-0.1-1.3-0.18-1.99-0.23c-0.64-0.11-1.28-0.16-1.92-0.16c-1.54,0-3.01,0.31-4.39,0.94c-1.33,0.58-2.5,1.46-3.51,2.67
				c-1.01,1.15-1.81,2.59-2.39,4.31c-0.59,1.73-0.88,3.71-0.88,5.96v19.29h-9.09V708.03z"/>
			<polygon class="st3" points="1325.11,708.03 1334.77,708.03 1342.82,738.31 1342.98,738.31 1350.72,708.03 1359.9,708.03 
				1367.32,738.31 1367.48,738.31 1375.85,708.03 1385.11,708.03 1372.18,748.58 1362.85,748.58 1355.19,718.46 1355.03,718.46 
				1347.45,748.58 1337.88,748.58 			"/>
			<path class="st3" d="M1409.84,749.68c-3.3,0-6.25-0.52-8.86-1.57c-2.55-1.1-4.73-2.59-6.54-4.47c-1.76-1.88-3.11-4.13-4.07-6.75
				c-0.9-2.62-1.36-5.49-1.36-8.63c0-3.09,0.45-5.94,1.36-8.55c0.96-2.61,2.31-4.86,4.07-6.75c1.81-1.88,3.99-3.35,6.54-4.39
				c2.61-1.1,5.56-1.65,8.86-1.65c3.3,0,6.22,0.55,8.78,1.65c2.61,1.05,4.79,2.51,6.54,4.39c1.81,1.88,3.16,4.13,4.07,6.75
				c0.96,2.61,1.44,5.46,1.44,8.55c0,3.14-0.48,6.01-1.44,8.63c-0.9,2.61-2.26,4.86-4.07,6.75c-1.76,1.88-3.94,3.37-6.54,4.47
				C1416.06,749.16,1413.14,749.68,1409.84,749.68z M1409.84,742.62c2.02,0,3.78-0.42,5.27-1.26c1.49-0.84,2.71-1.93,3.67-3.29
				c0.96-1.36,1.65-2.88,2.07-4.55c0.48-1.73,0.72-3.48,0.72-5.26c0-1.73-0.24-3.45-0.72-5.18c-0.43-1.72-1.12-3.24-2.07-4.55
				c-0.96-1.36-2.18-2.46-3.67-3.29s-3.24-1.26-5.27-1.26c-2.02,0-3.78,0.42-5.27,1.26c-1.49,0.84-2.71,1.93-3.67,3.29
				c-0.96,1.31-1.68,2.82-2.15,4.55c-0.42,1.73-0.64,3.45-0.64,5.18c0,1.78,0.21,3.53,0.64,5.26c0.48,1.67,1.2,3.19,2.15,4.55
				c0.96,1.36,2.18,2.46,3.67,3.29C1406.07,742.2,1407.82,742.62,1409.84,742.62z"/>
			<path class="st3" d="M1438.24,708.03h8.54v7.84h0.16c0.27-1.1,0.77-2.17,1.52-3.22c0.8-1.05,1.73-1.99,2.79-2.82
				c1.12-0.89,2.34-1.6,3.67-2.12c1.33-0.52,2.69-0.78,4.07-0.78c1.06,0,1.78,0.03,2.15,0.08c0.43,0.05,0.85,0.11,1.28,0.16v8.63
				c-0.64-0.1-1.3-0.18-1.99-0.23c-0.64-0.11-1.28-0.16-1.91-0.16c-1.54,0-3.01,0.31-4.39,0.94c-1.33,0.58-2.5,1.46-3.51,2.67
				c-1.01,1.15-1.81,2.59-2.39,4.31c-0.59,1.73-0.88,3.71-0.88,5.96v19.29h-9.09V708.03z"/>
			<rect x="1468.96" y="692.58" class="st3" width="9.09" height="56"/>
			<path class="st3" d="M1526.8,748.58h-8.62v-5.49h-0.16c-1.22,2.35-3.01,4.05-5.35,5.1c-2.34,0.99-4.81,1.49-7.42,1.49
				c-3.24,0-6.09-0.55-8.54-1.65c-2.39-1.15-4.39-2.69-5.98-4.63c-1.59-1.93-2.79-4.21-3.59-6.82c-0.8-2.67-1.2-5.52-1.2-8.55
				c0-3.66,0.5-6.82,1.52-9.49c1.01-2.67,2.34-4.86,3.99-6.59c1.7-1.73,3.62-2.98,5.74-3.77c2.18-0.84,4.39-1.25,6.62-1.25
				c1.28,0,2.58,0.13,3.91,0.39c1.33,0.21,2.61,0.57,3.83,1.1c1.22,0.52,2.34,1.2,3.35,2.04c1.06,0.78,1.94,1.73,2.63,2.82h0.16
				v-20.71h9.09V748.58z M1495.04,728.74c0,1.73,0.21,3.43,0.64,5.1c0.48,1.67,1.17,3.16,2.07,4.47c0.96,1.31,2.15,2.35,3.59,3.14
				c1.43,0.78,3.14,1.18,5.11,1.18c2.02,0,3.75-0.42,5.19-1.26c1.49-0.84,2.69-1.93,3.59-3.29c0.96-1.36,1.65-2.88,2.07-4.55
				c0.48-1.73,0.72-3.48,0.72-5.26c0-4.5-1.04-8-3.11-10.51c-2.02-2.51-4.79-3.76-8.3-3.76c-2.13,0-3.94,0.44-5.42,1.33
				c-1.44,0.84-2.63,1.96-3.59,3.37c-0.9,1.36-1.57,2.93-1.99,4.71C1495.23,725.13,1495.04,726.91,1495.04,728.74z"/>
			<path class="st3" d="M1587.19,724.74c-0.11-1.41-0.43-2.77-0.96-4.08c-0.48-1.31-1.17-2.43-2.07-3.37
				c-0.85-0.99-1.92-1.78-3.19-2.35c-1.22-0.63-2.61-0.94-4.15-0.94c-1.59,0-3.06,0.29-4.39,0.86c-1.28,0.52-2.39,1.28-3.35,2.28
				c-0.9,0.94-1.65,2.06-2.23,3.37c-0.53,1.31-0.82,2.72-0.88,4.24H1587.19z M1565.97,730.62c0,1.57,0.21,3.09,0.64,4.55
				c0.48,1.46,1.17,2.75,2.07,3.84c0.9,1.1,2.05,1.99,3.43,2.67c1.38,0.63,3.03,0.94,4.95,0.94c2.66,0,4.79-0.55,6.38-1.65
				c1.65-1.15,2.87-2.85,3.67-5.1h8.62c-0.48,2.2-1.3,4.16-2.47,5.88c-1.17,1.73-2.58,3.19-4.23,4.39
				c-1.65,1.15-3.51,2.01-5.58,2.59c-2.02,0.63-4.15,0.94-6.38,0.94c-3.24,0-6.12-0.52-8.62-1.57c-2.5-1.05-4.63-2.51-6.38-4.39
				c-1.7-1.88-3-4.13-3.91-6.75c-0.85-2.61-1.28-5.49-1.28-8.63c0-2.88,0.45-5.59,1.36-8.16c0.96-2.61,2.29-4.89,3.99-6.82
				c1.76-1.99,3.86-3.56,6.3-4.71c2.45-1.15,5.21-1.73,8.3-1.73c3.24,0,6.14,0.68,8.7,2.04c2.61,1.31,4.76,3.06,6.46,5.26
				c1.7,2.2,2.93,4.73,3.67,7.61c0.8,2.82,1.01,5.75,0.64,8.78H1565.97z"/>
			<path class="st3" d="M1637.77,739.56c0,1.1,0.13,1.88,0.4,2.35c0.32,0.47,0.9,0.71,1.76,0.71c0.27,0,0.59,0,0.96,0
				c0.37,0,0.8-0.05,1.28-0.16v6.19c-0.32,0.1-0.74,0.21-1.28,0.31c-0.48,0.16-0.98,0.29-1.52,0.39c-0.53,0.1-1.06,0.18-1.59,0.23
				c-0.53,0.05-0.98,0.08-1.36,0.08c-1.86,0-3.4-0.37-4.63-1.1c-1.22-0.73-2.02-2.01-2.39-3.84c-1.81,1.73-4.04,2.98-6.7,3.77
				c-2.61,0.78-5.13,1.18-7.58,1.18c-1.86,0-3.64-0.26-5.35-0.78c-1.7-0.47-3.22-1.18-4.55-2.12c-1.28-0.99-2.31-2.22-3.11-3.69
				c-0.75-1.52-1.12-3.27-1.12-5.26c0-2.51,0.45-4.55,1.36-6.12c0.96-1.57,2.18-2.8,3.67-3.69c1.54-0.89,3.25-1.52,5.11-1.88
				c1.91-0.42,3.83-0.73,5.74-0.94c1.65-0.31,3.22-0.52,4.71-0.63c1.49-0.16,2.79-0.39,3.91-0.71c1.17-0.31,2.07-0.78,2.71-1.41
				c0.69-0.68,1.04-1.67,1.04-2.98c0-1.15-0.29-2.09-0.88-2.82c-0.53-0.73-1.22-1.28-2.07-1.65c-0.8-0.42-1.7-0.68-2.71-0.78
				c-1.01-0.16-1.97-0.24-2.87-0.24c-2.55,0-4.65,0.52-6.3,1.57c-1.65,1.05-2.58,2.67-2.79,4.86h-9.09c0.16-2.61,0.8-4.78,1.91-6.51
				c1.12-1.73,2.53-3.11,4.23-4.16c1.76-1.05,3.72-1.78,5.9-2.2c2.18-0.42,4.41-0.63,6.7-0.63c2.02,0,4.02,0.21,5.98,0.63
				c1.97,0.42,3.72,1.1,5.26,2.04c1.6,0.94,2.87,2.17,3.83,3.69c0.96,1.46,1.44,3.27,1.44,5.41V739.56z M1628.68,728.27
				c-1.38,0.89-3.08,1.44-5.11,1.65c-2.02,0.16-4.04,0.42-6.06,0.78c-0.96,0.16-1.89,0.39-2.79,0.71c-0.9,0.26-1.7,0.65-2.39,1.18
				c-0.69,0.47-1.25,1.12-1.68,1.96c-0.37,0.78-0.56,1.75-0.56,2.9c0,1,0.29,1.83,0.88,2.51c0.58,0.68,1.28,1.23,2.07,1.65
				c0.85,0.37,1.75,0.63,2.71,0.78c1.01,0.16,1.91,0.24,2.71,0.24c1.01,0,2.1-0.13,3.27-0.39c1.17-0.26,2.26-0.71,3.27-1.33
				c1.06-0.63,1.94-1.41,2.63-2.35c0.69-0.99,1.04-2.2,1.04-3.61V728.27z"/>
			<path class="st3" d="M1654.45,735.56c0.27,2.61,1.28,4.44,3.03,5.49c1.76,1.05,3.86,1.57,6.3,1.57c0.85,0,1.81-0.05,2.87-0.16
				c1.12-0.16,2.15-0.42,3.11-0.78c0.96-0.37,1.73-0.89,2.31-1.57c0.64-0.73,0.93-1.67,0.88-2.82c-0.05-1.15-0.48-2.09-1.28-2.82
				c-0.8-0.73-1.84-1.31-3.11-1.73c-1.22-0.47-2.63-0.86-4.23-1.18c-1.59-0.31-3.22-0.65-4.87-1.02c-1.7-0.37-3.35-0.81-4.95-1.33
				c-1.54-0.52-2.95-1.23-4.23-2.12c-1.22-0.89-2.21-2.01-2.95-3.37c-0.75-1.41-1.12-3.14-1.12-5.18c0-2.2,0.53-4.03,1.59-5.49
				c1.12-1.52,2.5-2.72,4.15-3.61c1.7-0.94,3.56-1.6,5.59-1.96c2.07-0.37,4.04-0.55,5.9-0.55c2.13,0,4.15,0.23,6.06,0.71
				c1.97,0.42,3.72,1.12,5.27,2.12c1.6,0.99,2.9,2.3,3.91,3.92c1.06,1.57,1.73,3.48,1.99,5.73h-9.49c-0.43-2.14-1.44-3.58-3.03-4.31
				c-1.54-0.73-3.33-1.1-5.35-1.1c-0.64,0-1.41,0.05-2.31,0.16c-0.85,0.11-1.68,0.31-2.47,0.63c-0.75,0.26-1.38,0.68-1.92,1.26
				c-0.53,0.52-0.8,1.23-0.8,2.12c0,1.1,0.37,1.99,1.12,2.67c0.8,0.68,1.81,1.25,3.03,1.73c1.28,0.42,2.71,0.78,4.31,1.1
				c1.6,0.31,3.25,0.65,4.95,1.02c1.65,0.37,3.27,0.81,4.87,1.33c1.6,0.52,3.01,1.23,4.23,2.12c1.28,0.89,2.29,2.01,3.03,3.37
				c0.8,1.36,1.2,3.03,1.2,5.02c0,2.41-0.56,4.44-1.68,6.12c-1.12,1.67-2.58,3.03-4.39,4.08c-1.75,1.05-3.72,1.8-5.9,2.27
				c-2.18,0.47-4.33,0.71-6.46,0.71c-2.61,0-5.03-0.29-7.26-0.86c-2.18-0.57-4.1-1.44-5.74-2.59c-1.6-1.2-2.87-2.67-3.83-4.39
				c-0.9-1.78-1.38-3.87-1.43-6.27H1654.45z"/>
			<path class="st3" d="M1689.23,692.58h9.09v8.47h-9.09V692.58z M1689.23,708.03h9.09v40.55h-9.09V708.03z"/>
			<path class="st3" d="M1736.54,724.74c-0.11-1.41-0.43-2.77-0.96-4.08c-0.48-1.31-1.17-2.43-2.07-3.37
				c-0.85-0.99-1.92-1.78-3.19-2.35c-1.22-0.63-2.61-0.94-4.15-0.94c-1.59,0-3.06,0.29-4.39,0.86c-1.28,0.52-2.39,1.28-3.35,2.28
				c-0.9,0.94-1.65,2.06-2.23,3.37c-0.53,1.31-0.82,2.72-0.88,4.24H1736.54z M1715.32,730.62c0,1.57,0.21,3.09,0.64,4.55
				c0.48,1.46,1.17,2.75,2.07,3.84c0.9,1.1,2.05,1.99,3.43,2.67c1.38,0.63,3.03,0.94,4.95,0.94c2.66,0,4.79-0.55,6.38-1.65
				c1.65-1.15,2.87-2.85,3.67-5.1h8.62c-0.48,2.2-1.3,4.16-2.47,5.88c-1.17,1.73-2.58,3.19-4.23,4.39
				c-1.65,1.15-3.51,2.01-5.58,2.59c-2.02,0.63-4.15,0.94-6.38,0.94c-3.24,0-6.12-0.52-8.62-1.57c-2.5-1.05-4.63-2.51-6.38-4.39
				c-1.7-1.88-3-4.13-3.91-6.75c-0.85-2.61-1.28-5.49-1.28-8.63c0-2.88,0.45-5.59,1.36-8.16c0.96-2.61,2.29-4.89,3.99-6.82
				c1.76-1.99,3.86-3.56,6.3-4.71c2.45-1.15,5.21-1.73,8.3-1.73c3.24,0,6.14,0.68,8.7,2.04c2.61,1.31,4.76,3.06,6.46,5.26
				c1.7,2.2,2.93,4.73,3.67,7.61c0.8,2.82,1.01,5.75,0.64,8.78H1715.32z"/>
			<path class="st3" d="M1752.58,708.03h8.54v7.84h0.16c0.27-1.1,0.77-2.17,1.52-3.22c0.8-1.05,1.73-1.99,2.79-2.82
				c1.12-0.89,2.34-1.6,3.67-2.12c1.33-0.52,2.69-0.78,4.07-0.78c1.06,0,1.78,0.03,2.15,0.08c0.43,0.05,0.85,0.11,1.28,0.16v8.63
				c-0.64-0.1-1.3-0.18-1.99-0.23c-0.64-0.11-1.28-0.16-1.91-0.16c-1.54,0-3.01,0.31-4.39,0.94c-1.33,0.58-2.5,1.46-3.51,2.67
				c-1.01,1.15-1.81,2.59-2.39,4.31c-0.59,1.73-0.88,3.71-0.88,5.96v19.29h-9.09V708.03z"/>
			<rect x="1781.38" y="737.99" class="st3" width="11.09" height="10.59"/>
		</g>
	</g>
</g>
</svg>
